Coordinates
version=1
nRows=14
nColumns=42
inDegrees=yes

Units are S.I. units (second, meters, Newtons, ...)
If the header above contains a line with 'inDegrees', this indicates whether rotational values are in degrees (yes) or radians (no).

endheader
time	pelvis_tilt	pelvis_list	pelvis_rotation	pelvis_tx	pelvis_ty	pelvis_tz	hip_flexion_r	hip_adduction_r	hip_rotation_r	knee_angle_r	knee_adduction_r	knee_angle_r_beta	ankle_angle_r	subtalar_angle_r	mtp_angle_r	hip_flexion_l	hip_adduction_l	hip_rotation_l	knee_angle_l	knee_adduction_l	knee_angle_l_beta	ankle_angle_l	subtalar_angle_l	mtp_angle_l	lumbar_extension	lumbar_bending	lumbar_rotation	arm_flex_r	arm_add_r	arm_rot_r	elbow_flex_r	pro_sup_r	wrist_flex_r	wrist_dev_r	arm_flex_l	arm_add_l	arm_rot_l	elbow_flex_l	pro_sup_l	wrist_flex_l	wrist_dev_l
      0.50000000	     20.37628362	     -0.24383449	      2.68918824	     -0.43404149	      0.93330558	     -0.17599921	     -4.94706212	      3.13644359	    -12.43681758	     29.25838170	     -2.83911672	      0.51065509	     13.07248931	     19.56281843	     -9.01483708	    -29.48258312	      3.06297232	     -5.95479918	     25.97312754	     -0.21602959	      0.45331659	     20.67426723	     -8.47807786	     -9.01483708	    -33.15140173	     -1.78322372	      3.10503472	      5.99300498	    -10.98168857	    -34.40084226	     23.82557788	     90.00000001	      0.00000000	      0.00000000	     -2.08933236	    -19.56981236	      1.14201075	     69.71581258	     90.00000001	      0.00000000	      0.00000000
      0.51000000	     20.49852185	      0.04073123	      2.34768695	     -0.42859125	      0.93481296	     -0.17483855	     -5.83062372	      2.79785449	    -12.93411572	     28.54776796	     -2.90939948	      0.49825254	     13.20778488	     19.81296764	     -9.00779370	    -29.46872661	      3.05539826	     -5.98841687	     27.06899498	      0.55965713	      0.47244309	     19.95052055	     -8.39058660	     -9.00779370	    -33.26869501	     -2.28150793	      3.22538680	      6.47298342	    -10.91302987	    -34.32080433	     24.03148525	     90.00000001	      0.00000000	      0.00000000	     -1.97418726	    -19.61398669	      1.05557979	     69.68424722	     90.00000001	      0.00000000	      0.00000000
      0.52000000	     20.76778006	     -0.10466240	      2.49359710	     -0.42283333	      0.93646471	     -0.17411320	     -6.97343968	      3.09706681	    -15.91102606	     27.14108618	     -4.22082138	      0.47370132	     13.18879570	     25.22935815	     -8.91223414	    -29.39509972	      2.34984833	     -5.74917266	     28.74117001	      1.32151546	      0.50162805	     18.32242930	     -9.72426192	     -8.91223414	    -33.48039633	     -2.10876437	      3.07375984	      6.82674765	    -10.84429634	    -33.47665044	     24.61441050	     90.00000001	      0.00000000	      0.00000000	     -2.02899721	    -19.65002780	      0.79933540	     69.84572474	     90.00000001	      0.00000000	      0.00000000
      0.53000000	     21.01484746	     -0.00090450	      2.44579008	     -0.41734464	      0.93813693	     -0.17332315	     -8.15361457	      2.99010167	    -17.01640501	     25.95266088	     -4.33737335	      0.45295938	     13.21200765	     26.87412395	     -8.88132013	    -29.25208562	      2.01731157	     -5.72219476	     30.37436623	      1.89539538	      0.53013270	     16.99569333	    -10.25779598	     -8.88132013	    -33.71425049	     -2.26720473	      2.98199303	      7.29034504	    -10.75037511	    -33.09217278	     25.09450193	     90.00000001	      0.00000000	      0.00000000	     -2.03696408	    -19.72764609	      0.68712585	     70.09970166	     90.00000001	      0.00000000	      0.00000000
      0.54000000	     21.19982675	      0.11405623	      2.43421146	     -0.41203122	      0.93968448	     -0.17259207	     -9.19517941	      2.84987158	    -18.22332308	     24.89693533	     -4.42250407	      0.43453350	     13.13451954	     28.64342534	     -8.85784923	    -28.95046213	      1.62016687	     -5.40605963	     32.15025590	      2.69568993	      0.56112782	     15.72105486	    -10.78962656	     -8.85784923	    -33.90307361	     -2.41777842	      2.87043430	      7.77650654	    -10.66255529	    -32.64533539	     25.57385635	     90.00000001	      0.00000000	      0.00000000	     -1.98266110	    -19.79936576	      0.53382864	     70.22793256	     90.00000001	      0.00000000	      0.00000000
      0.55000000	     21.30113694	      0.49419071	      2.38624692	     -0.40669650	      0.94093493	     -0.17216997	     -9.87123974	      2.36126462	    -21.18469350	     24.21983707	     -5.43883177	      0.42271590	     13.23093018	     33.47529881	     -8.75500721	    -28.53967339	      1.54959394	     -4.61797033	     33.88810121	      3.66939496	      0.59145894	     14.18828368	    -12.34528275	     -8.75500721	    -34.01305691	     -2.81901857	      2.67020453	      7.94091194	    -10.71753379	    -30.55320928	     26.39799622	     90.00000001	      0.00000000	      0.00000000	     -1.94489386	    -19.79852371	      0.35672269	     70.42544727	     90.00000001	      0.00000000	      0.00000000
      0.56000000	     21.37835488	      0.76748340	      2.28565901	     -0.40172979	      0.94224238	     -0.17141303	    -10.70964905	      2.00195614	    -21.61044531	     23.48292660	     -5.11375962	      0.40985439	     13.27051760	     33.87321558	     -8.74610905	    -27.94927104	      1.34915723	     -4.33138560	     35.79271170	      4.41195085	      0.62470067	     13.30087257	    -12.37821215	     -8.74610905	    -34.15033621	     -3.17971443	      2.61813157	      8.51618170	    -10.60411813	    -30.33570135	     26.79080421	     90.00000001	      0.00000000	      0.00000000	     -1.77638576	    -19.84217761	      0.26571702	     70.54151679	     90.00000001	      0.00000000	      0.00000000
      0.57000000	     21.22916451	      0.66572668	      2.51141803	     -0.39682285	      0.94290279	     -0.17111047	    -11.21332057	      2.17367431	    -22.94069882	     22.62420435	     -5.31291357	      0.39486686	     12.96944979	     35.79455049	     -8.61682348	    -26.75630917	      0.58775760	     -4.20391358	     38.44159515	      5.05401163	      0.67093241	     12.14227134	    -13.73995718	     -8.61682348	    -34.03321734	     -2.97344129	      2.40908905	      8.67303008	    -10.76807235	    -27.78884728	     27.82883534	     90.00000001	      0.00000000	      0.00000000	     -1.79177315	    -19.78146075	      0.04371861	     70.83789566	     90.00000001	      0.00000000	      0.00000000
      0.58000000	     21.15480065	      0.86844535	      2.62568550	     -0.39211093	      0.94379582	     -0.17087019	    -11.85422956	      1.90113310	    -23.08416152	     21.97126719	     -4.79750502	      0.38347095	     13.00212955	     35.94370848	     -8.60116883	    -25.73705530	      0.28494800	     -3.89649014	     40.60618009	      5.51028747	      0.70871154	     11.50010936	    -13.87103259	     -8.60116883	    -34.04053089	     -3.11364906	      2.20247197	      9.27785037	    -10.67302476	    -27.54476407	     28.34173916	     90.00000001	      0.00000000	      0.00000000	     -1.65197716	    -19.79345780	     -0.01709447	     70.98952058	     90.00000001	      0.00000000	      0.00000000
      0.59000000	     20.95193164	      0.86837410	      2.88415131	     -0.38748184	      0.94429862	     -0.17070879	    -12.31379510	      1.95065237	    -23.26931496	     21.27481580	     -4.42892874	      0.37131558	     12.91123669	     36.21523561	     -8.58338073	    -24.37654979	     -0.31884702	     -3.78258605	     43.09040222	      5.85394980	      0.75206939	     10.95248097	    -14.57584908	     -8.58338073	    -33.92692919	     -3.01000049	      1.96678310	      9.86183771	    -10.60433784	    -27.13545525	     28.92228662	     90.00000001	      0.00000000	      0.00000000	     -1.58856858	    -19.74407870	     -0.10894320	     71.22756982	     90.00000001	      0.00000000	      0.00000000
      0.60000000	     20.65637448	      0.69646057	      3.02450834	     -0.38300618	      0.94448639	     -0.17016878	    -12.48840634	      2.26953685	    -23.42327036	     20.80040213	     -4.42667893	      0.36303550	     12.74386106	     36.31487012	     -8.55153454	    -22.87020697	     -1.11910339	     -3.87859473	     45.50900974	      6.24936475	      0.79428206	     10.62793974	    -15.54536865	     -8.55153454	    -33.71974403	     -2.80926195	      1.94685472	     10.38605425	    -10.64935012	    -26.17394071	     29.56891041	     90.00000001	      0.00000000	      0.00000000	     -1.46943613	    -19.65167068	     -0.28028937	     71.40871988	     90.00000001	      0.00000000	      0.00000000
      0.61000000	     20.45481123	      0.71779089	      3.18915091	     -0.37842387	      0.94479978	     -0.16995465	    -12.81876891	      2.30865926	    -23.26704880	     20.39301192	     -4.12884221	      0.35592520	     12.77755026	     36.17358753	     -8.51564530	    -21.51985809	     -1.61496663	     -3.87296290	     47.53903107	      6.38014539	      0.82971262	     10.54369731	    -16.10222603	     -8.51564530	    -33.60706006	     -2.75607944	      1.83125124	     10.84260472	    -10.68355787	    -25.02048306	     30.24994460	     90.00000001	      0.00000000	      0.00000000	     -1.35100141	    -19.56045871	     -0.33842662	     71.58866061	     90.00000001	      0.00000000	      0.00000000
      0.62000000	     20.35739474	      0.95323963	      3.36835662	     -0.37399102	      0.94536345	     -0.17008747	    -13.31032000	      2.02768405	    -22.98161354	     19.98435493	     -3.59657855	      0.34879279	     12.92502671	     36.05405774	     -8.50086249	    -20.33630996	     -1.75185188	     -3.78378105	     49.07702129	      6.21043057	      0.85655561	     10.71536079	    -16.39195672	     -8.50086249	    -33.67327857	     -2.88147266	      1.59876448	     11.48824578	    -10.67744210	    -24.55732521	     30.81316459	     90.00000001	      0.00000000	      0.00000000	     -1.18120815	    -19.53713448	     -0.29906431	     71.76375692	     90.00000001	      0.00000000	      0.00000000
      0.63000000	     20.09758193	      0.80122452	      3.50449360	     -0.36963399	      0.94537955	     -0.16970535	    -13.47827252	      2.34865260	    -22.37804775	     19.65964472	     -3.43412562	      0.34312553	     12.95684148	     35.35219543	     -8.46479948	    -18.80604521	     -2.43227255	     -4.16649182	     50.87649533	      6.01825699	      0.88796236	     10.99726031	    -16.85257256	     -8.46479948	    -33.51630002	     -2.68168617	      1.62710493	     11.96156884	    -10.80639136	    -23.19584025	     31.56046351	     90.00000001	      0.00000000	      0.00000000	     -1.01998238	    -19.45007318	     -0.33851839	     71.95441138	     90.00000001	      0.00000000	      0.00000000
